<mxfile host="app.diagrams.net" modified="2022-12-16T03:07:50.139Z" agent="5.0 (Windows NT 10.0; Win64; x64) AppleWebKit/537.36 (KHTML, like Gecko) Chrome/108.0.0.0 Safari/537.36" version="20.7.2" etag="l_BxNUF72LIh987JMSZF" type="github">
  <diagram id="_smdcac9_WbYGItgKm7C" name="Page-1">
    <mxGraphModel dx="1035" dy="522" grid="1" gridSize="10" guides="1" tooltips="1" connect="1" arrows="1" fold="1" page="1" pageScale="1" pageWidth="850" pageHeight="1100" math="0" shadow="0">
      <root>
        <mxCell id="0" />
        <mxCell id="1" parent="0" />
        <mxCell id="57TVYrg5U72w9WgtRQjX-16" style="edgeStyle=orthogonalEdgeStyle;rounded=0;orthogonalLoop=1;jettySize=auto;html=1;exitX=0.5;exitY=1;exitDx=0;exitDy=0;exitPerimeter=0;entryX=0.5;entryY=0;entryDx=0;entryDy=0;" edge="1" parent="1" source="57TVYrg5U72w9WgtRQjX-2" target="57TVYrg5U72w9WgtRQjX-6">
          <mxGeometry relative="1" as="geometry" />
        </mxCell>
        <mxCell id="57TVYrg5U72w9WgtRQjX-2" value="Start" style="strokeWidth=2;html=1;shape=mxgraph.flowchart.start_2;whiteSpace=wrap;" vertex="1" parent="1">
          <mxGeometry x="320" y="80" width="80" height="80" as="geometry" />
        </mxCell>
        <mxCell id="57TVYrg5U72w9WgtRQjX-17" style="edgeStyle=orthogonalEdgeStyle;rounded=0;orthogonalLoop=1;jettySize=auto;html=1;exitX=0.5;exitY=1;exitDx=0;exitDy=0;entryX=0.5;entryY=0;entryDx=0;entryDy=0;" edge="1" parent="1" source="57TVYrg5U72w9WgtRQjX-6" target="57TVYrg5U72w9WgtRQjX-8">
          <mxGeometry relative="1" as="geometry" />
        </mxCell>
        <mxCell id="57TVYrg5U72w9WgtRQjX-27" style="edgeStyle=orthogonalEdgeStyle;rounded=0;orthogonalLoop=1;jettySize=auto;html=1;exitX=0;exitY=0.5;exitDx=0;exitDy=0;entryX=0;entryY=0.5;entryDx=0;entryDy=0;shape=link;dashed=1;" edge="1" parent="1" source="57TVYrg5U72w9WgtRQjX-6" target="57TVYrg5U72w9WgtRQjX-14">
          <mxGeometry relative="1" as="geometry" />
        </mxCell>
        <mxCell id="57TVYrg5U72w9WgtRQjX-28" value="Off Chain" style="edgeLabel;html=1;align=center;verticalAlign=middle;resizable=0;points=[];fontStyle=1;fontSize=20;rotation=-90;" vertex="1" connectable="0" parent="57TVYrg5U72w9WgtRQjX-27">
          <mxGeometry x="-0.1423" y="-1" relative="1" as="geometry">
            <mxPoint x="-29" y="56" as="offset" />
          </mxGeometry>
        </mxCell>
        <mxCell id="57TVYrg5U72w9WgtRQjX-6" value="Open App" style="rounded=1;whiteSpace=wrap;html=1;absoluteArcSize=1;arcSize=14;strokeWidth=2;" vertex="1" parent="1">
          <mxGeometry x="320" y="200" width="80" height="80" as="geometry" />
        </mxCell>
        <mxCell id="57TVYrg5U72w9WgtRQjX-18" style="edgeStyle=orthogonalEdgeStyle;rounded=0;orthogonalLoop=1;jettySize=auto;html=1;exitX=0.5;exitY=1;exitDx=0;exitDy=0;entryX=0.5;entryY=0;entryDx=0;entryDy=0;" edge="1" parent="1" source="57TVYrg5U72w9WgtRQjX-8" target="57TVYrg5U72w9WgtRQjX-10">
          <mxGeometry relative="1" as="geometry" />
        </mxCell>
        <mxCell id="57TVYrg5U72w9WgtRQjX-8" value="Authorize or Login with Wallet (Metamask)" style="rounded=1;whiteSpace=wrap;html=1;absoluteArcSize=1;arcSize=14;strokeWidth=2;" vertex="1" parent="1">
          <mxGeometry x="320" y="320" width="80" height="80" as="geometry" />
        </mxCell>
        <mxCell id="57TVYrg5U72w9WgtRQjX-19" style="edgeStyle=orthogonalEdgeStyle;rounded=0;orthogonalLoop=1;jettySize=auto;html=1;exitX=0.5;exitY=1;exitDx=0;exitDy=0;entryX=0.5;entryY=0;entryDx=0;entryDy=0;" edge="1" parent="1" source="57TVYrg5U72w9WgtRQjX-10" target="57TVYrg5U72w9WgtRQjX-12">
          <mxGeometry relative="1" as="geometry" />
        </mxCell>
        <mxCell id="57TVYrg5U72w9WgtRQjX-10" value="Create NFT Item" style="rounded=1;whiteSpace=wrap;html=1;absoluteArcSize=1;arcSize=14;strokeWidth=2;" vertex="1" parent="1">
          <mxGeometry x="320" y="440" width="80" height="80" as="geometry" />
        </mxCell>
        <mxCell id="57TVYrg5U72w9WgtRQjX-21" style="edgeStyle=orthogonalEdgeStyle;rounded=0;orthogonalLoop=1;jettySize=auto;html=1;exitX=0.5;exitY=1;exitDx=0;exitDy=0;entryX=0.5;entryY=0;entryDx=0;entryDy=0;entryPerimeter=0;" edge="1" parent="1" source="57TVYrg5U72w9WgtRQjX-12">
          <mxGeometry relative="1" as="geometry">
            <mxPoint x="360" y="680" as="targetPoint" />
          </mxGeometry>
        </mxCell>
        <mxCell id="57TVYrg5U72w9WgtRQjX-12" value="Fill the item data" style="rounded=1;whiteSpace=wrap;html=1;absoluteArcSize=1;arcSize=14;strokeWidth=2;" vertex="1" parent="1">
          <mxGeometry x="320" y="560" width="80" height="80" as="geometry" />
        </mxCell>
        <mxCell id="57TVYrg5U72w9WgtRQjX-24" style="edgeStyle=orthogonalEdgeStyle;rounded=0;orthogonalLoop=1;jettySize=auto;html=1;exitX=1;exitY=0.5;exitDx=0;exitDy=0;entryX=0;entryY=0.5;entryDx=0;entryDy=0;entryPerimeter=0;" edge="1" parent="1" source="57TVYrg5U72w9WgtRQjX-14" target="57TVYrg5U72w9WgtRQjX-15">
          <mxGeometry relative="1" as="geometry" />
        </mxCell>
        <mxCell id="57TVYrg5U72w9WgtRQjX-26" style="edgeStyle=orthogonalEdgeStyle;rounded=0;orthogonalLoop=1;jettySize=auto;html=1;exitX=0.5;exitY=1;exitDx=0;exitDy=0;entryX=0.5;entryY=0;entryDx=0;entryDy=0;entryPerimeter=0;" edge="1" parent="1" source="57TVYrg5U72w9WgtRQjX-14" target="57TVYrg5U72w9WgtRQjX-25">
          <mxGeometry relative="1" as="geometry" />
        </mxCell>
        <mxCell id="57TVYrg5U72w9WgtRQjX-14" value="Upload the item" style="rounded=1;whiteSpace=wrap;html=1;absoluteArcSize=1;arcSize=14;strokeWidth=2;" vertex="1" parent="1">
          <mxGeometry x="320" y="800" width="80" height="80" as="geometry" />
        </mxCell>
        <mxCell id="57TVYrg5U72w9WgtRQjX-15" value="&lt;b&gt;Off Chain Storage&lt;/b&gt;" style="shape=mxgraph.cisco.storage.relational_database;sketch=0;html=1;pointerEvents=1;dashed=0;fillColor=#036897;strokeColor=#ffffff;strokeWidth=2;verticalLabelPosition=bottom;verticalAlign=top;align=center;outlineConnect=0;" vertex="1" parent="1">
          <mxGeometry x="680" y="801.75" width="80" height="76.5" as="geometry" />
        </mxCell>
        <mxCell id="57TVYrg5U72w9WgtRQjX-23" style="edgeStyle=orthogonalEdgeStyle;rounded=0;orthogonalLoop=1;jettySize=auto;html=1;exitX=0.5;exitY=1;exitDx=0;exitDy=0;entryX=0.5;entryY=0;entryDx=0;entryDy=0;" edge="1" parent="1" source="57TVYrg5U72w9WgtRQjX-22" target="57TVYrg5U72w9WgtRQjX-14">
          <mxGeometry relative="1" as="geometry" />
        </mxCell>
        <mxCell id="57TVYrg5U72w9WgtRQjX-22" value="Choose a Chain (ETH, Matic, Near)" style="rounded=1;whiteSpace=wrap;html=1;absoluteArcSize=1;arcSize=14;strokeWidth=2;" vertex="1" parent="1">
          <mxGeometry x="320" y="680" width="80" height="80" as="geometry" />
        </mxCell>
        <mxCell id="57TVYrg5U72w9WgtRQjX-25" value="End" style="strokeWidth=2;html=1;shape=mxgraph.flowchart.start_2;whiteSpace=wrap;" vertex="1" parent="1">
          <mxGeometry x="320" y="920" width="80" height="80" as="geometry" />
        </mxCell>
        <mxCell id="57TVYrg5U72w9WgtRQjX-30" value="&lt;font style=&quot;font-size: 10px;&quot;&gt;Encode address and its total supply in the tokenâ€™s ID&lt;/font&gt;" style="text;whiteSpace=wrap;html=1;fontSize=20;" vertex="1" parent="1">
          <mxGeometry x="420" y="800" width="244" height="40" as="geometry" />
        </mxCell>
      </root>
    </mxGraphModel>
  </diagram>
</mxfile>
